<mxfile host="app.diagrams.net" modified="2023-10-31T07:41:54.727Z" agent="Mozilla/5.0 (Windows NT 10.0; Win64; x64) AppleWebKit/537.36 (KHTML, like Gecko) Chrome/118.0.0.0 Safari/537.36" etag="Pp7oYgY-wxOzRaRiJfu2" version="22.0.8" type="github">
  <diagram name="第 1 页" id="FR1k69GXd6Kn39nvwAWi">
    <mxGraphModel dx="1050" dy="1743" grid="1" gridSize="10" guides="1" tooltips="1" connect="1" arrows="1" fold="1" page="1" pageScale="1" pageWidth="827" pageHeight="1169" math="0" shadow="0">
      <root>
        <mxCell id="0" />
        <mxCell id="1" parent="0" />
        <mxCell id="tZuHjzZd8mnVyC86GWg2-1" value="大雁" style="swimlane;fontStyle=1;align=center;verticalAlign=top;childLayout=stackLayout;horizontal=1;startSize=26;horizontalStack=0;resizeParent=1;resizeParentMax=0;resizeLast=0;collapsible=1;marginBottom=0;whiteSpace=wrap;html=1;" vertex="1" parent="1">
          <mxGeometry x="284" y="-370" width="90" height="100" as="geometry" />
        </mxCell>
        <mxCell id="tZuHjzZd8mnVyC86GWg2-2" value="- attribute" style="text;strokeColor=none;fillColor=none;align=left;verticalAlign=top;spacingLeft=4;spacingRight=4;overflow=hidden;rotatable=0;points=[[0,0.5],[1,0.5]];portConstraint=eastwest;whiteSpace=wrap;html=1;" vertex="1" parent="tZuHjzZd8mnVyC86GWg2-1">
          <mxGeometry y="26" width="90" height="26" as="geometry" />
        </mxCell>
        <mxCell id="tZuHjzZd8mnVyC86GWg2-3" value="" style="line;strokeWidth=1;fillColor=none;align=left;verticalAlign=middle;spacingTop=-1;spacingLeft=3;spacingRight=3;rotatable=0;labelPosition=right;points=[];portConstraint=eastwest;strokeColor=inherit;" vertex="1" parent="tZuHjzZd8mnVyC86GWg2-1">
          <mxGeometry y="52" width="90" height="8" as="geometry" />
        </mxCell>
        <mxCell id="tZuHjzZd8mnVyC86GWg2-4" value="+ 下蛋()&lt;span style=&quot;white-space: pre;&quot;&gt;&#x9;&lt;/span&gt;&lt;br&gt;+ 飛()&lt;br&gt;" style="text;strokeColor=none;fillColor=none;align=left;verticalAlign=top;spacingLeft=4;spacingRight=4;overflow=hidden;rotatable=0;points=[[0,0.5],[1,0.5]];portConstraint=eastwest;whiteSpace=wrap;html=1;" vertex="1" parent="tZuHjzZd8mnVyC86GWg2-1">
          <mxGeometry y="60" width="90" height="40" as="geometry" />
        </mxCell>
        <mxCell id="tZuHjzZd8mnVyC86GWg2-5" value="" style="endArrow=diamondThin;endFill=0;endSize=24;html=1;rounded=0;" edge="1" parent="1">
          <mxGeometry width="160" relative="1" as="geometry">
            <mxPoint x="374" y="-354" as="sourcePoint" />
            <mxPoint x="454" y="-354" as="targetPoint" />
          </mxGeometry>
        </mxCell>
        <mxCell id="tZuHjzZd8mnVyC86GWg2-6" value="雁群" style="swimlane;fontStyle=1;align=center;verticalAlign=top;childLayout=stackLayout;horizontal=1;startSize=26;horizontalStack=0;resizeParent=1;resizeParentMax=0;resizeLast=0;collapsible=1;marginBottom=0;whiteSpace=wrap;html=1;" vertex="1" parent="1">
          <mxGeometry x="454" y="-370" width="90" height="100" as="geometry" />
        </mxCell>
        <mxCell id="tZuHjzZd8mnVyC86GWg2-7" value="- attribute" style="text;strokeColor=none;fillColor=none;align=left;verticalAlign=top;spacingLeft=4;spacingRight=4;overflow=hidden;rotatable=0;points=[[0,0.5],[1,0.5]];portConstraint=eastwest;whiteSpace=wrap;html=1;" vertex="1" parent="tZuHjzZd8mnVyC86GWg2-6">
          <mxGeometry y="26" width="90" height="26" as="geometry" />
        </mxCell>
        <mxCell id="tZuHjzZd8mnVyC86GWg2-8" value="" style="line;strokeWidth=1;fillColor=none;align=left;verticalAlign=middle;spacingTop=-1;spacingLeft=3;spacingRight=3;rotatable=0;labelPosition=right;points=[];portConstraint=eastwest;strokeColor=inherit;" vertex="1" parent="tZuHjzZd8mnVyC86GWg2-6">
          <mxGeometry y="52" width="90" height="8" as="geometry" />
        </mxCell>
        <mxCell id="tZuHjzZd8mnVyC86GWg2-9" value="+ V型飛()&lt;span style=&quot;white-space: pre;&quot;&gt;&#x9;&lt;/span&gt;&lt;br&gt;+ 一般飛行()" style="text;strokeColor=none;fillColor=none;align=left;verticalAlign=top;spacingLeft=4;spacingRight=4;overflow=hidden;rotatable=0;points=[[0,0.5],[1,0.5]];portConstraint=eastwest;whiteSpace=wrap;html=1;" vertex="1" parent="tZuHjzZd8mnVyC86GWg2-6">
          <mxGeometry y="60" width="90" height="40" as="geometry" />
        </mxCell>
      </root>
    </mxGraphModel>
  </diagram>
</mxfile>
